<?xml version="1.0" standalone="no"?><!DOCTYPE svg PUBLIC "-//W3C//DTD SVG 1.1//EN" "http://www.w3.org/Graphics/SVG/1.1/DTD/svg11.dtd"><svg class="icon" width="64px" height="64.00px" viewBox="0 0 1024 1024" version="1.1" xmlns="http://www.w3.org/2000/svg"><path fill="#ffffff" d="M394.633846 673.181538v195.012924c-1.299692 64.984615 24.024615 108.504615 75.992616 130.500923a72.054154 72.054154 0 0 0 93.932307-37.041231l171.716923-385.969231V39.384615H185.757538a97.575385 97.575385 0 0 0-97.614769 82.904616l-67.347692 438.744615a97.437538 97.437538 0 0 0 22.843077 78.631385 97.654154 97.654154 0 0 0 74.771692 33.516307H394.633846zM784.305231 39.384615h122.387692A97.555692 97.555692 0 0 1 1004.307692 136.900923v341.267692a97.555692 97.555692 0 0 1-97.614769 97.516308h-122.387692V39.384615z"  fill-opacity=".8" /></svg>